<svg width="128" height="128" viewBox="0 0 128 128" fill="none" xmlns="http://www.w3.org/2000/svg">
<circle cx="64" cy="64" r="64" fill="url(#paint0_radial)"/>
<g filter="url(#filter0_d)">
<path opacity="0.3" d="M64.2917 39.0415C48.1667 39.0415 35.125 52.0832 35.125 68.2082C35.125 84.3332 48.1667 97.3748 64.2917 97.3748C80.4166 97.3748 93.4583 84.3332 93.4583 68.2082C93.4583 52.0832 80.4166 39.0415 64.2917 39.0415V39.0415ZM68.4583 72.3748H60.125V47.3748H68.4583V72.3748Z" fill="white"/>
<path d="M51.7915 18.208H76.7915V26.5413H51.7915V18.208ZM60.1248 47.3747H68.4582V72.3747H60.1248V47.3747ZM93.5832 44.7913L99.4998 38.8747C97.7082 36.7497 95.7498 34.7497 93.6248 32.9997L87.7082 38.9163C81.2498 33.7497 73.1248 30.6663 64.2915 30.6663C43.5832 30.6663 26.7915 47.458 26.7915 68.1663C26.7915 88.8747 43.5415 105.666 64.2915 105.666C85.0415 105.666 101.792 88.8747 101.792 68.1663C101.792 59.3747 98.7082 51.208 93.5832 44.7913ZM64.2915 97.3747C48.1665 97.3747 35.1248 84.333 35.1248 68.208C35.1248 52.083 48.1665 39.0413 64.2915 39.0413C80.4165 39.0413 93.4582 52.083 93.4582 68.208C93.4582 84.333 80.4165 97.3747 64.2915 97.3747Z" fill="white"/>
</g>
<defs>
<filter id="filter0_d" x="10" y="14" width="108" height="108" filterUnits="userSpaceOnUse" color-interpolation-filters="sRGB">
<feFlood flood-opacity="0" result="BackgroundImageFix"/>
<feColorMatrix in="SourceAlpha" type="matrix" values="0 0 0 0 0 0 0 0 0 0 0 0 0 0 0 0 0 0 127 0"/>
<feOffset dy="4"/>
<feGaussianBlur stdDeviation="2"/>
<feColorMatrix type="matrix" values="0 0 0 0 0 0 0 0 0 0 0 0 0 0 0 0 0 0 0.05 0"/>
<feBlend mode="normal" in2="BackgroundImageFix" result="effect1_dropShadow"/>
<feBlend mode="normal" in="SourceGraphic" in2="effect1_dropShadow" result="shape"/>
</filter>
<radialGradient id="paint0_radial" cx="0" cy="0" r="1" gradientUnits="userSpaceOnUse" gradientTransform="translate(64 64) rotate(90) scale(64)">
<stop offset="0.413542" stop-color="#2F87D0"/>
<stop offset="1" stop-color="#026DC5"/>
</radialGradient>
</defs>
</svg>
